<?xml version="1.0" encoding="utf-8"?>
<!-- Generator: Adobe Illustrator 27.5.0, SVG Export Plug-In . SVG Version: 6.00 Build 0)  -->
<svg version="1.1" xmlns="http://www.w3.org/2000/svg" xmlns:xlink="http://www.w3.org/1999/xlink" x="0px" y="0px"
	 viewBox="0 0 1200 1200" style="enable-background:new 0 0 1200 1200;" xml:space="preserve">
<g id="Background">
	<rect x="0" style="fill:#F9EFDF;" width="1200" height="1200"/>
</g>
<g id="Graphic_Elements">
	<g>
		<path style="fill:#F8543A;" d="M808.978,392.121c0,28.342-5.434,55.409-15.303,80.225
			c-27.854,87.765-109.996,151.368-206.987,151.368c-59.954,0-114.232-24.306-153.53-63.592
			c-39.286-39.297-63.592-93.575-63.592-153.53v-5.167h217.121V175h5.167C711.765,175,808.978,272.212,808.978,392.121z"/>
		<rect x="316.834" y="642.457" style="fill:#93B6D9;" width="581.913" height="51.58"/>
		<rect x="316.834" y="712.782" style="fill:#93B6D9;" width="581.913" height="51.58"/>
		
			<polyline style="fill:none;stroke:#222221;stroke-width:15;stroke-linecap:round;stroke-linejoin:round;stroke-miterlimit:10;" points="
			808.979,327.948 882.077,326.846 730.58,478.343 666.083,448.772 464.7,650.155 		"/>
		
			<line style="fill:none;stroke:#222221;stroke-width:15;stroke-linecap:round;stroke-linejoin:round;stroke-miterlimit:10;" x1="882.077" y1="418.084" x2="882.077" y2="326.846"/>
	</g>
</g>
<g id="Text">
	<text transform="matrix(1 0 0 1 334.6257 893.9771)" style="font-family:'Nunito-ExtraBold'; font-size:96px; letter-spacing:11;">FINANCIAL</text>
	<text transform="matrix(1 0 0 1 431.6208 981.4487)" style="font-family:'Nunito-Regular'; font-size:60px; letter-spacing:6;">COMPANY</text>
</g>
</svg>
