<?xml version="1.0" encoding="utf-8"?>
<!-- Generator: Adobe Illustrator 27.5.0, SVG Export Plug-In . SVG Version: 6.00 Build 0)  -->
<svg version="1.1" xmlns="http://www.w3.org/2000/svg" xmlns:xlink="http://www.w3.org/1999/xlink" x="0px" y="0px"
	 viewBox="0 0 500 500" style="enable-background:new 0 0 500 500;" xml:space="preserve">
<g id="Background">
	<rect style="fill:#FFFFFF;" width="500" height="500"/>
</g>
<g id="Objects">
	<g>
		<rect x="75.311" y="57.333" style="fill:none;stroke:#D0D9EF;stroke-miterlimit:10;" width="345.019" height="338.795"/>
		<line style="fill:none;stroke:#D0D9EF;stroke-miterlimit:10;" x1="75.311" y1="347.778" x2="420.331" y2="347.778"/>
		<line style="fill:none;stroke:#D0D9EF;stroke-miterlimit:10;" x1="75.311" y1="299.427" x2="420.331" y2="299.427"/>
		<line style="fill:none;stroke:#D0D9EF;stroke-miterlimit:10;" x1="75.311" y1="251.077" x2="420.331" y2="251.077"/>
		<line style="fill:none;stroke:#D0D9EF;stroke-miterlimit:10;" x1="75.311" y1="202.726" x2="420.331" y2="202.726"/>
		<line style="fill:none;stroke:#D0D9EF;stroke-miterlimit:10;" x1="75.311" y1="154.376" x2="420.331" y2="154.376"/>
		<line style="fill:none;stroke:#D0D9EF;stroke-miterlimit:10;" x1="75.311" y1="106.025" x2="420.331" y2="106.025"/>
		<line style="fill:none;stroke:#D0D9EF;stroke-miterlimit:10;" x1="362.827" y1="57.333" x2="362.827" y2="396.129"/>
		<line style="fill:none;stroke:#D0D9EF;stroke-miterlimit:10;" x1="305.324" y1="57.333" x2="305.324" y2="396.129"/>
		<line style="fill:none;stroke:#D0D9EF;stroke-miterlimit:10;" x1="247.821" y1="57.333" x2="247.821" y2="396.129"/>
		<line style="fill:none;stroke:#D0D9EF;stroke-miterlimit:10;" x1="190.318" y1="57.333" x2="190.318" y2="396.129"/>
		<line style="fill:none;stroke:#D0D9EF;stroke-miterlimit:10;" x1="132.814" y1="57.333" x2="132.814" y2="396.129"/>
	</g>
	<g>
		<g>
			<path style="fill:#EFC072;" d="M129.735,398.604c-4.738-1.206-11.24-1.95-18.417-1.95c-7.178,0-13.68,0.745-18.417,1.95h-7.824
				v4.825c0,3.742,11.749,6.775,26.241,6.775c14.493,0,26.242-3.033,26.242-6.775v-4.825H129.735z"/>
			<path style="fill:#F6DD74;" d="M137.559,398.604c0,3.742-11.749,6.775-26.242,6.775s-26.242-3.033-26.242-6.775
				c0-3.742,11.749-6.775,26.242-6.775S137.559,394.862,137.559,398.604z"/>
			<path style="fill:#EFC072;" d="M132.869,398.604c0,3.073-9.649,5.565-21.552,5.565s-21.552-2.491-21.552-5.565
				c0-3.073,9.649-5.564,21.552-5.564S132.869,395.531,132.869,398.604z"/>
			<path style="fill:#F6DD74;" d="M130.005,398.604c0,2.665-8.367,4.825-18.687,4.825s-18.687-2.16-18.687-4.825
				c0-2.665,8.367-4.825,18.687-4.825S130.005,395.94,130.005,398.604z"/>
			<g>
				<path style="fill:#A18044;" d="M117.323,397.032h-4.368c0.768,0.157,1.324,0.383,1.483,0.697h2.886v0.342h-2.859
					c-0.265,0.697-2.41,1.142-5.799,1.169c2.065,0.554,4.316,1.251,6.54,1.955h-2.542c-2.065-0.643-3.998-1.237-6.487-1.921v-0.424
					h1.456c2.859,0,4.395-0.308,4.58-0.779h-6.037v-0.342h5.957c-0.371-0.397-1.774-0.595-4.078-0.595h-1.88v-0.444h11.147V397.032z
					"/>
			</g>
		</g>
		<g>
			<path style="fill:#EFC072;" d="M129.735,391.367c-4.738-1.206-11.24-1.95-18.417-1.95c-7.178,0-13.68,0.745-18.417,1.95h-7.824
				v4.825c0,3.742,11.749,6.775,26.241,6.775c14.493,0,26.242-3.033,26.242-6.775v-4.825H129.735z"/>
			<ellipse style="fill:#F6DD74;" cx="111.317" cy="391.367" rx="26.242" ry="6.775"/>
			<ellipse style="fill:#EFC072;" cx="111.317" cy="391.367" rx="21.552" ry="5.564"/>
			<ellipse style="fill:#F6DD74;" cx="111.317" cy="391.367" rx="18.687" ry="4.825"/>
			<g>
				<path style="fill:#A18044;" d="M117.323,389.795h-4.368c0.768,0.157,1.324,0.383,1.483,0.697h2.886v0.342h-2.859
					c-0.265,0.697-2.41,1.142-5.799,1.169c2.065,0.554,4.316,1.251,6.54,1.955h-2.542c-2.065-0.643-3.998-1.237-6.487-1.921v-0.424
					h1.456c2.859,0,4.395-0.308,4.58-0.779h-6.037v-0.342h5.957c-0.371-0.397-1.774-0.595-4.078-0.595h-1.88v-0.444h11.147V389.795z
					"/>
			</g>
		</g>
		<g>
			<path style="fill:#EFC072;" d="M129.735,384.129c-4.738-1.206-11.24-1.95-18.417-1.95c-7.178,0-13.68,0.745-18.417,1.95h-7.824
				v4.825c0,3.742,11.749,6.775,26.241,6.775c14.493,0,26.242-3.034,26.242-6.775v-4.825H129.735z"/>
			<ellipse style="fill:#F6DD74;" cx="111.317" cy="384.129" rx="26.242" ry="6.775"/>
			<ellipse style="fill:#EFC072;" cx="111.317" cy="384.129" rx="21.552" ry="5.564"/>
			<path style="fill:#F6DD74;" d="M130.005,384.129c0,2.665-8.367,4.825-18.687,4.825s-18.687-2.16-18.687-4.825
				c0-2.665,8.367-4.825,18.687-4.825S130.005,381.465,130.005,384.129z"/>
			<g>
				<path style="fill:#A18044;" d="M117.323,382.558h-4.368c0.768,0.157,1.324,0.383,1.483,0.697h2.886v0.342h-2.859
					c-0.265,0.697-2.41,1.142-5.799,1.169c2.065,0.554,4.316,1.251,6.54,1.955h-2.542c-2.065-0.643-3.998-1.237-6.487-1.921v-0.424
					h1.456c2.859,0,4.395-0.308,4.58-0.779h-6.037v-0.342h5.957c-0.371-0.397-1.774-0.595-4.078-0.595h-1.88v-0.444h11.147V382.558z
					"/>
			</g>
		</g>
		<g>
			<path style="fill:#EFC072;" d="M129.735,376.892c-4.738-1.206-11.24-1.951-18.417-1.951c-7.178,0-13.68,0.745-18.417,1.951
				h-7.824v4.825c0,3.742,11.749,6.775,26.241,6.775c14.493,0,26.242-3.034,26.242-6.775v-4.825H129.735z"/>
			<path style="fill:#F6DD74;" d="M137.559,376.892c0,3.742-11.749,6.775-26.242,6.775s-26.242-3.033-26.242-6.775
				c0-3.742,11.749-6.775,26.242-6.775S137.559,373.15,137.559,376.892z"/>
			<ellipse style="fill:#EFC072;" cx="111.317" cy="376.892" rx="21.552" ry="5.564"/>
			<path style="fill:#F6DD74;" d="M130.005,376.892c0,2.665-8.367,4.825-18.687,4.825s-18.687-2.16-18.687-4.825
				c0-2.665,8.367-4.825,18.687-4.825S130.005,374.227,130.005,376.892z"/>
			<g>
				<path style="fill:#A18044;" d="M117.323,375.32h-4.368c0.768,0.157,1.324,0.383,1.483,0.697h2.886v0.342h-2.859
					c-0.265,0.697-2.41,1.142-5.799,1.169c2.065,0.554,4.316,1.251,6.54,1.955h-2.542c-2.065-0.643-3.998-1.237-6.487-1.921v-0.424
					h1.456c2.859,0,4.395-0.308,4.58-0.779h-6.037v-0.342h5.957c-0.371-0.397-1.774-0.595-4.078-0.595h-1.88v-0.444h11.147V375.32z"
					/>
			</g>
		</g>
		<g>
			<path style="fill:#EFC072;" d="M129.735,369.655c-4.738-1.206-11.24-1.951-18.417-1.951c-7.178,0-13.68,0.745-18.417,1.951
				h-7.824v4.825c0,3.742,11.749,6.775,26.241,6.775c14.493,0,26.242-3.033,26.242-6.775v-4.825H129.735z"/>
			<path style="fill:#F6DD74;" d="M137.559,369.655c0,3.742-11.749,6.775-26.242,6.775s-26.242-3.033-26.242-6.775
				c0-3.742,11.749-6.775,26.242-6.775S137.559,365.913,137.559,369.655z"/>
			<ellipse style="fill:#EFC072;" cx="111.317" cy="369.655" rx="21.552" ry="5.564"/>
			<ellipse style="fill:#F6DD74;" cx="111.317" cy="369.655" rx="18.687" ry="4.825"/>
			<g>
				<path style="fill:#A18044;" d="M117.323,368.083h-4.368c0.768,0.157,1.324,0.383,1.483,0.697h2.886v0.342h-2.859
					c-0.265,0.697-2.41,1.142-5.799,1.169c2.065,0.554,4.316,1.251,6.54,1.955h-2.542c-2.065-0.643-3.998-1.237-6.487-1.921v-0.424
					h1.456c2.859,0,4.395-0.308,4.58-0.779h-6.037v-0.342h5.957c-0.371-0.397-1.774-0.595-4.078-0.595h-1.88v-0.444h11.147V368.083z
					"/>
			</g>
		</g>
		<g>
			<path style="fill:#EFC072;" d="M129.735,362.417c-4.738-1.206-11.24-1.95-18.417-1.95c-7.178,0-13.68,0.745-18.417,1.95h-7.824
				v4.825c0,3.742,11.749,6.775,26.241,6.775c14.493,0,26.242-3.034,26.242-6.775v-4.825H129.735z"/>
			<ellipse style="fill:#F6DD74;" cx="111.317" cy="362.417" rx="26.242" ry="6.775"/>
			<ellipse style="fill:#EFC072;" cx="111.317" cy="362.417" rx="21.552" ry="5.564"/>
			<path style="fill:#F6DD74;" d="M130.005,362.417c0,2.665-8.367,4.825-18.687,4.825s-18.687-2.16-18.687-4.825
				c0-2.665,8.367-4.825,18.687-4.825S130.005,359.753,130.005,362.417z"/>
			<g>
				<path style="fill:#A18044;" d="M117.323,360.845h-4.368c0.768,0.157,1.324,0.383,1.483,0.697h2.886v0.342h-2.859
					c-0.265,0.697-2.41,1.142-5.799,1.169c2.065,0.554,4.316,1.251,6.54,1.955h-2.542c-2.065-0.643-3.998-1.237-6.487-1.921v-0.424
					h1.456c2.859,0,4.395-0.308,4.58-0.779h-6.037v-0.342h5.957c-0.371-0.396-1.774-0.595-4.078-0.595h-1.88v-0.444h11.147V360.845z
					"/>
			</g>
		</g>
	</g>
	<g>
		<g>
			<polygon style="fill:#CE484A;" points="446.567,73.135 346.689,173.013 285.563,111.886 160.78,236.669 105.746,181.635 
				0,287.381 0,319.908 105.746,214.162 160.78,269.196 285.563,144.414 346.689,205.54 462.831,89.399 			"/>
		</g>
		<g>
			<polygon style="fill:#CE484A;" points="479.312,56.524 416.518,73.35 462.486,119.318 			"/>
		</g>
	</g>
	<g>
		<rect x="121.623" y="331.629" style="fill:#54735A;" width="176.05" height="93.516"/>
		<polygon style="fill:#445D49;" points="369.447,400.475 297.428,425.145 297.428,331.629 369.447,306.959 		"/>
		<polygon style="fill:#75A27D;" points="193.641,306.959 369.447,306.959 297.428,331.629 121.623,331.629 		"/>
		<polygon style="fill:#445D49;" points="217.854,315.375 279.898,315.375 263.209,321.211 201.165,321.211 		"/>
		<g>
			<path style="fill:#2A372C;" d="M235.336,355.009h-13.8c2.426,1.924,4.181,4.684,4.684,8.532h9.116v4.182h-9.032
				c-0.837,8.531-7.612,13.968-18.318,14.302c6.525,6.775,13.633,15.306,20.659,23.921h-8.029
				c-6.525-7.862-12.63-15.139-20.492-23.503v-5.186h4.6c9.033,0,13.884-3.764,14.469-9.535h-19.07v-4.182h18.819
				c-1.171-4.851-5.604-7.277-12.881-7.277h-5.938v-5.437h35.212V355.009z"/>
		</g>
	</g>
	<g>
		<g>
			<path style="fill:#EFC072;" d="M375.586,402.223c-4.738-1.206-11.24-1.95-18.417-1.95c-7.178,0-13.68,0.745-18.417,1.95h-7.824
				v4.825c0,3.742,11.749,6.775,26.242,6.775c14.493,0,26.241-3.034,26.241-6.775v-4.825H375.586z"/>
			<ellipse style="fill:#F6DD74;" cx="357.169" cy="402.223" rx="26.242" ry="6.775"/>
			<ellipse style="fill:#EFC072;" cx="357.169" cy="402.223" rx="21.552" ry="5.564"/>
			<ellipse style="fill:#F6DD74;" cx="357.169" cy="402.223" rx="18.687" ry="4.825"/>
			<g>
				<path style="fill:#A18044;" d="M363.175,400.651h-4.369c0.768,0.157,1.324,0.383,1.483,0.697h2.886v0.342h-2.859
					c-0.265,0.697-2.41,1.142-5.799,1.169c2.065,0.554,4.316,1.251,6.54,1.955h-2.542c-2.065-0.643-3.998-1.237-6.487-1.921v-0.424
					h1.456c2.86,0,4.395-0.308,4.581-0.779h-6.037v-0.342h5.957c-0.371-0.396-1.774-0.595-4.077-0.595h-1.88v-0.444h11.147V400.651z
					"/>
			</g>
		</g>
		<g>
			<path style="fill:#EFC072;" d="M375.586,394.986c-4.738-1.206-11.24-1.95-18.417-1.95c-7.178,0-13.68,0.745-18.417,1.95h-7.824
				v4.825c0,3.742,11.749,6.775,26.242,6.775c14.493,0,26.241-3.034,26.241-6.775v-4.825H375.586z"/>
			<ellipse style="fill:#F6DD74;" cx="357.169" cy="394.986" rx="26.242" ry="6.775"/>
			<ellipse style="fill:#EFC072;" cx="357.169" cy="394.986" rx="21.552" ry="5.564"/>
			<ellipse style="fill:#F6DD74;" cx="357.169" cy="394.986" rx="18.687" ry="4.825"/>
			<g>
				<path style="fill:#A18044;" d="M363.175,393.414h-4.369c0.768,0.157,1.324,0.383,1.483,0.697h2.886v0.342h-2.859
					c-0.265,0.697-2.41,1.142-5.799,1.169c2.065,0.554,4.316,1.251,6.54,1.955h-2.542c-2.065-0.643-3.998-1.237-6.487-1.921v-0.424
					h1.456c2.86,0,4.395-0.308,4.581-0.779h-6.037v-0.342h5.957c-0.371-0.396-1.774-0.595-4.077-0.595h-1.88v-0.444h11.147V393.414z
					"/>
			</g>
		</g>
		<g>
			<path style="fill:#EFC072;" d="M375.586,387.748c-4.738-1.206-11.24-1.95-18.417-1.95c-7.178,0-13.68,0.745-18.417,1.95h-7.824
				v4.825c0,3.742,11.749,6.775,26.242,6.775c14.493,0,26.241-3.034,26.241-6.775v-4.825H375.586z"/>
			<ellipse style="fill:#F6DD74;" cx="357.169" cy="387.748" rx="26.242" ry="6.775"/>
			<ellipse style="fill:#EFC072;" cx="357.169" cy="387.748" rx="21.552" ry="5.564"/>
			<path style="fill:#F6DD74;" d="M375.857,387.748c0,2.665-8.367,4.825-18.687,4.825c-10.321,0-18.687-2.16-18.687-4.825
				c0-2.665,8.367-4.825,18.687-4.825C367.49,382.923,375.857,385.083,375.857,387.748z"/>
			<g>
				<path style="fill:#A18044;" d="M363.175,386.176h-4.369c0.768,0.157,1.324,0.383,1.483,0.697h2.886v0.342h-2.859
					c-0.265,0.697-2.41,1.142-5.799,1.169c2.065,0.554,4.316,1.251,6.54,1.955h-2.542c-2.065-0.643-3.998-1.237-6.487-1.921v-0.424
					h1.456c2.86,0,4.395-0.308,4.581-0.779h-6.037v-0.342h5.957c-0.371-0.397-1.774-0.595-4.077-0.595h-1.88v-0.444h11.147V386.176z
					"/>
			</g>
		</g>
		<g>
			<path style="fill:#EFC072;" d="M375.586,380.511c-4.738-1.206-11.24-1.951-18.417-1.951c-7.178,0-13.68,0.745-18.417,1.951
				h-7.824v4.825c0,3.742,11.749,6.775,26.242,6.775c14.493,0,26.241-3.033,26.241-6.775v-4.825H375.586z"/>
			<path style="fill:#F6DD74;" d="M383.411,380.511c0,3.742-11.749,6.775-26.242,6.775s-26.241-3.033-26.241-6.775
				c0-3.742,11.749-6.775,26.241-6.775S383.411,376.769,383.411,380.511z"/>
			<ellipse style="fill:#EFC072;" cx="357.169" cy="380.511" rx="21.552" ry="5.564"/>
			<path style="fill:#F6DD74;" d="M375.857,380.511c0,2.665-8.367,4.825-18.687,4.825c-10.321,0-18.687-2.16-18.687-4.825
				s8.367-4.825,18.687-4.825C367.49,375.686,375.857,377.846,375.857,380.511z"/>
			<g>
				<path style="fill:#A18044;" d="M363.175,378.939h-4.369c0.768,0.157,1.324,0.383,1.483,0.697h2.886v0.342h-2.859
					c-0.265,0.697-2.41,1.142-5.799,1.169c2.065,0.554,4.316,1.251,6.54,1.955h-2.542c-2.065-0.643-3.998-1.237-6.487-1.921v-0.424
					h1.456c2.86,0,4.395-0.308,4.581-0.779h-6.037v-0.342h5.957c-0.371-0.397-1.774-0.595-4.077-0.595h-1.88v-0.444h11.147V378.939z
					"/>
			</g>
		</g>
		<g>
			<path style="fill:#EFC072;" d="M375.586,373.273c-4.738-1.206-11.24-1.95-18.417-1.95c-7.178,0-13.68,0.745-18.417,1.95h-7.824
				v4.825c0,3.742,11.749,6.775,26.242,6.775c14.493,0,26.241-3.033,26.241-6.775v-4.825H375.586z"/>
			<path style="fill:#F6DD74;" d="M383.411,373.273c0,3.742-11.749,6.775-26.242,6.775s-26.241-3.034-26.241-6.775
				c0-3.742,11.749-6.775,26.241-6.775S383.411,369.531,383.411,373.273z"/>
			<ellipse style="fill:#EFC072;" cx="357.169" cy="373.273" rx="21.552" ry="5.564"/>
			<path style="fill:#F6DD74;" d="M375.857,373.273c0,2.665-8.367,4.825-18.687,4.825c-10.321,0-18.687-2.16-18.687-4.825
				s8.367-4.825,18.687-4.825C367.49,368.448,375.857,370.609,375.857,373.273z"/>
			<g>
				<path style="fill:#A18044;" d="M363.175,371.702h-4.369c0.768,0.157,1.324,0.383,1.483,0.697h2.886v0.342h-2.859
					c-0.265,0.697-2.41,1.142-5.799,1.169c2.065,0.554,4.316,1.251,6.54,1.955h-2.542c-2.065-0.643-3.998-1.237-6.487-1.921v-0.424
					h1.456c2.86,0,4.395-0.308,4.581-0.779h-6.037v-0.342h5.957c-0.371-0.397-1.774-0.595-4.077-0.595h-1.88v-0.444h11.147V371.702z
					"/>
			</g>
		</g>
		<g>
			<path style="fill:#EFC072;" d="M375.586,366.036c-4.738-1.206-11.24-1.95-18.417-1.95c-7.178,0-13.68,0.745-18.417,1.95h-7.824
				v4.825c0,3.742,11.749,6.775,26.242,6.775c14.493,0,26.241-3.033,26.241-6.775v-4.825H375.586z"/>
			<ellipse style="fill:#F6DD74;" cx="357.169" cy="366.036" rx="26.242" ry="6.775"/>
			<ellipse style="fill:#EFC072;" cx="357.169" cy="366.036" rx="21.552" ry="5.564"/>
			<path style="fill:#F6DD74;" d="M375.857,366.036c0,2.665-8.367,4.825-18.687,4.825c-10.321,0-18.687-2.16-18.687-4.825
				c0-2.665,8.367-4.825,18.687-4.825C367.49,361.211,375.857,363.371,375.857,366.036z"/>
			<g>
				<path style="fill:#A18044;" d="M363.175,364.464h-4.369c0.768,0.157,1.324,0.383,1.483,0.697h2.886v0.342h-2.859
					c-0.265,0.697-2.41,1.142-5.799,1.169c2.065,0.554,4.316,1.251,6.54,1.955h-2.542c-2.065-0.643-3.998-1.237-6.487-1.921v-0.424
					h1.456c2.86,0,4.395-0.308,4.581-0.779h-6.037v-0.342h5.957c-0.371-0.396-1.774-0.595-4.077-0.595h-1.88v-0.444h11.147V364.464z
					"/>
			</g>
		</g>
		<g>
			<path style="fill:#EFC072;" d="M375.586,358.799c-4.738-1.206-11.24-1.95-18.417-1.95c-7.178,0-13.68,0.745-18.417,1.95h-7.824
				v4.825c0,3.742,11.749,6.775,26.242,6.775c14.493,0,26.241-3.034,26.241-6.775v-4.825H375.586z"/>
			<ellipse style="fill:#F6DD74;" cx="357.169" cy="358.799" rx="26.242" ry="6.775"/>
			<ellipse style="fill:#EFC072;" cx="357.169" cy="358.799" rx="21.552" ry="5.564"/>
			<ellipse style="fill:#F6DD74;" cx="357.169" cy="358.799" rx="18.687" ry="4.825"/>
			<g>
				<path style="fill:#A18044;" d="M363.175,357.227h-4.369c0.768,0.157,1.324,0.383,1.483,0.697h2.886v0.342h-2.859
					c-0.265,0.697-2.41,1.142-5.799,1.169c2.065,0.554,4.316,1.251,6.54,1.955h-2.542c-2.065-0.643-3.998-1.237-6.487-1.921v-0.424
					h1.456c2.86,0,4.395-0.308,4.581-0.779h-6.037v-0.342h5.957c-0.371-0.397-1.774-0.595-4.077-0.595h-1.88v-0.444h11.147V357.227z
					"/>
			</g>
		</g>
		<g>
			<path style="fill:#EFC072;" d="M375.586,351.561c-4.738-1.206-11.24-1.95-18.417-1.95c-7.178,0-13.68,0.745-18.417,1.95h-7.824
				v4.825c0,3.742,11.749,6.775,26.242,6.775c14.493,0,26.241-3.033,26.241-6.775v-4.825H375.586z"/>
			<ellipse style="fill:#F6DD74;" cx="357.169" cy="351.561" rx="26.242" ry="6.775"/>
			<ellipse style="fill:#EFC072;" cx="357.169" cy="351.561" rx="21.552" ry="5.564"/>
			<ellipse style="fill:#F6DD74;" cx="357.169" cy="351.561" rx="18.687" ry="4.825"/>
			<g>
				<path style="fill:#A18044;" d="M363.175,349.989h-4.369c0.768,0.157,1.324,0.383,1.483,0.697h2.886v0.342h-2.859
					c-0.265,0.697-2.41,1.142-5.799,1.169c2.065,0.554,4.316,1.251,6.54,1.955h-2.542c-2.065-0.643-3.998-1.237-6.487-1.921v-0.424
					h1.456c2.86,0,4.395-0.308,4.581-0.779h-6.037v-0.342h5.957c-0.371-0.397-1.774-0.595-4.077-0.595h-1.88v-0.444h11.147V349.989z
					"/>
			</g>
		</g>
		<g>
			<path style="fill:#EFC072;" d="M375.586,344.324c-4.738-1.206-11.24-1.95-18.417-1.95c-7.178,0-13.68,0.745-18.417,1.95h-7.824
				v4.825c0,3.742,11.749,6.775,26.242,6.775c14.493,0,26.241-3.033,26.241-6.775v-4.825H375.586z"/>
			<path style="fill:#F6DD74;" d="M383.411,344.324c0,3.742-11.749,6.775-26.242,6.775s-26.241-3.034-26.241-6.775
				c0-3.742,11.749-6.775,26.241-6.775S383.411,340.582,383.411,344.324z"/>
			<path style="fill:#EFC072;" d="M378.721,344.324c0,3.073-9.649,5.565-21.552,5.565c-11.903,0-21.552-2.491-21.552-5.565
				c0-3.073,9.649-5.564,21.552-5.564C369.072,338.759,378.721,341.251,378.721,344.324z"/>
			<path style="fill:#F6DD74;" d="M375.857,344.324c0,2.665-8.367,4.825-18.687,4.825c-10.321,0-18.687-2.16-18.687-4.825
				c0-2.665,8.367-4.825,18.687-4.825C367.49,339.499,375.857,341.659,375.857,344.324z"/>
			<g>
				<path style="fill:#A18044;" d="M363.175,342.752h-4.369c0.768,0.157,1.324,0.383,1.483,0.697h2.886v0.342h-2.859
					c-0.265,0.697-2.41,1.142-5.799,1.169c2.065,0.554,4.316,1.251,6.54,1.955h-2.542c-2.065-0.643-3.998-1.237-6.487-1.921v-0.424
					h1.456c2.86,0,4.395-0.308,4.581-0.779h-6.037v-0.342h5.957c-0.371-0.397-1.774-0.595-4.077-0.595h-1.88v-0.444h11.147V342.752z
					"/>
			</g>
		</g>
		<g>
			<path style="fill:#EFC072;" d="M375.586,337.086c-4.738-1.206-11.24-1.95-18.417-1.95c-7.178,0-13.68,0.745-18.417,1.95h-7.824
				v4.825c0,3.742,11.749,6.775,26.242,6.775c14.493,0,26.241-3.033,26.241-6.775v-4.825H375.586z"/>
			<path style="fill:#F6DD74;" d="M383.411,337.086c0,3.742-11.749,6.775-26.242,6.775s-26.241-3.033-26.241-6.775
				c0-3.742,11.749-6.775,26.241-6.775S383.411,333.345,383.411,337.086z"/>
			<path style="fill:#EFC072;" d="M378.721,337.086c0,3.073-9.649,5.565-21.552,5.565c-11.903,0-21.552-2.491-21.552-5.565
				c0-3.073,9.649-5.564,21.552-5.564C369.072,331.522,378.721,334.013,378.721,337.086z"/>
			<path style="fill:#F6DD74;" d="M375.857,337.086c0,2.665-8.367,4.825-18.687,4.825c-10.321,0-18.687-2.16-18.687-4.825
				c0-2.665,8.367-4.825,18.687-4.825C367.49,332.262,375.857,334.422,375.857,337.086z"/>
			<g>
				<path style="fill:#A18044;" d="M363.175,335.515h-4.369c0.768,0.157,1.324,0.383,1.483,0.697h2.886v0.342h-2.859
					c-0.265,0.697-2.41,1.142-5.799,1.169c2.065,0.554,4.316,1.251,6.54,1.955h-2.542c-2.065-0.642-3.998-1.237-6.487-1.921v-0.424
					h1.456c2.86,0,4.395-0.308,4.581-0.779h-6.037v-0.342h5.957c-0.371-0.397-1.774-0.595-4.077-0.595h-1.88v-0.444h11.147V335.515z
					"/>
			</g>
		</g>
		<g>
			<path style="fill:#EFC072;" d="M375.586,329.849c-4.738-1.206-11.24-1.95-18.417-1.95c-7.178,0-13.68,0.745-18.417,1.95h-7.824
				v4.825c0,3.742,11.749,6.775,26.242,6.775c14.493,0,26.241-3.033,26.241-6.775v-4.825H375.586z"/>
			<path style="fill:#F6DD74;" d="M383.411,329.849c0,3.742-11.749,6.775-26.242,6.775s-26.241-3.033-26.241-6.775
				c0-3.742,11.749-6.775,26.241-6.775S383.411,326.107,383.411,329.849z"/>
			<ellipse style="fill:#EFC072;" cx="357.169" cy="329.849" rx="21.552" ry="5.564"/>
			<path style="fill:#F6DD74;" d="M375.857,329.849c0,2.665-8.367,4.825-18.687,4.825c-10.321,0-18.687-2.16-18.687-4.825
				c0-2.665,8.367-4.825,18.687-4.825C367.49,325.024,375.857,327.184,375.857,329.849z"/>
			<g>
				<path style="fill:#A18044;" d="M363.175,328.277h-4.369c0.768,0.157,1.324,0.383,1.483,0.697h2.886v0.342h-2.859
					c-0.265,0.697-2.41,1.142-5.799,1.169c2.065,0.554,4.316,1.251,6.54,1.955h-2.542c-2.065-0.643-3.998-1.237-6.487-1.921v-0.424
					h1.456c2.86,0,4.395-0.308,4.581-0.779h-6.037v-0.342h5.957c-0.371-0.396-1.774-0.595-4.077-0.595h-1.88v-0.444h11.147V328.277z
					"/>
			</g>
		</g>
		<g>
			<path style="fill:#EFC072;" d="M375.586,322.612c-4.738-1.206-11.24-1.951-18.417-1.951c-7.178,0-13.68,0.745-18.417,1.951
				h-7.824v4.825c0,3.742,11.749,6.775,26.242,6.775c14.493,0,26.241-3.033,26.241-6.775v-4.825H375.586z"/>
			<path style="fill:#F6DD74;" d="M383.411,322.612c0,3.742-11.749,6.775-26.242,6.775s-26.241-3.033-26.241-6.775
				c0-3.742,11.749-6.775,26.241-6.775S383.411,318.87,383.411,322.612z"/>
			<ellipse style="fill:#EFC072;" cx="357.169" cy="322.612" rx="21.552" ry="5.564"/>
			<path style="fill:#F6DD74;" d="M375.857,322.612c0,2.665-8.367,4.825-18.687,4.825c-10.321,0-18.687-2.16-18.687-4.825
				c0-2.665,8.367-4.825,18.687-4.825C367.49,317.787,375.857,319.947,375.857,322.612z"/>
			<g>
				<path style="fill:#A18044;" d="M363.175,321.04h-4.369c0.768,0.157,1.324,0.383,1.483,0.697h2.886v0.342h-2.859
					c-0.265,0.697-2.41,1.142-5.799,1.169c2.065,0.554,4.316,1.251,6.54,1.955h-2.542c-2.065-0.643-3.998-1.237-6.487-1.921v-0.424
					h1.456c2.86,0,4.395-0.308,4.581-0.779h-6.037v-0.342h5.957c-0.371-0.396-1.774-0.595-4.077-0.595h-1.88v-0.444h11.147V321.04z"
					/>
			</g>
		</g>
		<g>
			<path style="fill:#EFC072;" d="M375.586,315.374c-4.738-1.206-11.24-1.951-18.417-1.951c-7.178,0-13.68,0.745-18.417,1.951
				h-7.824v4.825c0,3.742,11.749,6.775,26.242,6.775c14.493,0,26.241-3.034,26.241-6.775v-4.825H375.586z"/>
			<path style="fill:#F6DD74;" d="M383.411,315.374c0,3.742-11.749,6.775-26.242,6.775s-26.241-3.033-26.241-6.775
				c0-3.742,11.749-6.775,26.241-6.775S383.411,311.632,383.411,315.374z"/>
			<path style="fill:#EFC072;" d="M378.721,315.374c0,3.073-9.649,5.565-21.552,5.565c-11.903,0-21.552-2.491-21.552-5.565
				c0-3.073,9.649-5.565,21.552-5.565C369.072,309.81,378.721,312.301,378.721,315.374z"/>
			<path style="fill:#F6DD74;" d="M375.857,315.374c0,2.665-8.367,4.825-18.687,4.825c-10.321,0-18.687-2.16-18.687-4.825
				c0-2.665,8.367-4.825,18.687-4.825C367.49,310.549,375.857,312.71,375.857,315.374z"/>
			<g>
				<path style="fill:#A18044;" d="M363.175,313.802h-4.369c0.768,0.157,1.324,0.383,1.483,0.697h2.886v0.342h-2.859
					c-0.265,0.697-2.41,1.142-5.799,1.169c2.065,0.554,4.316,1.251,6.54,1.955h-2.542c-2.065-0.643-3.998-1.237-6.487-1.921v-0.424
					h1.456c2.86,0,4.395-0.308,4.581-0.779h-6.037V314.5h5.957c-0.371-0.396-1.774-0.595-4.077-0.595h-1.88v-0.444h11.147V313.802z"
					/>
			</g>
		</g>
	</g>
	<g>
		<g>
			<path style="fill:#EFC072;" d="M414.106,413.079c-4.738-1.206-11.24-1.95-18.417-1.95s-13.68,0.745-18.417,1.95h-7.824v4.825
				c0,3.742,11.749,6.775,26.241,6.775s26.242-3.033,26.242-6.775v-4.825H414.106z"/>
			<ellipse style="fill:#F6DD74;" cx="395.688" cy="413.079" rx="26.242" ry="6.775"/>
			<ellipse style="fill:#EFC072;" cx="395.688" cy="413.079" rx="21.552" ry="5.564"/>
			<ellipse style="fill:#F6DD74;" cx="395.688" cy="413.079" rx="18.687" ry="4.825"/>
			<g>
				<path style="fill:#A18044;" d="M401.694,411.507h-4.368c0.768,0.157,1.324,0.383,1.483,0.697h2.886v0.342h-2.859
					c-0.265,0.697-2.41,1.142-5.799,1.169c2.065,0.554,4.316,1.251,6.54,1.955h-2.542c-2.066-0.643-3.998-1.237-6.487-1.921v-0.424
					h1.456c2.859,0,4.395-0.308,4.581-0.779h-6.037v-0.342h5.957c-0.371-0.396-1.774-0.595-4.078-0.595h-1.88v-0.444h11.147V411.507
					z"/>
			</g>
		</g>
		<g>
			<path style="fill:#EFC072;" d="M414.106,405.842c-4.738-1.206-11.24-1.951-18.417-1.951s-13.68,0.745-18.417,1.951h-7.824v4.825
				c0,3.742,11.749,6.775,26.241,6.775s26.242-3.033,26.242-6.775v-4.825H414.106z"/>
			<ellipse style="fill:#F6DD74;" cx="395.688" cy="405.842" rx="26.242" ry="6.775"/>
			<ellipse style="fill:#EFC072;" cx="395.688" cy="405.842" rx="21.552" ry="5.564"/>
			<path style="fill:#F6DD74;" d="M414.375,405.842c0,2.665-8.366,4.825-18.687,4.825c-10.321,0-18.687-2.16-18.687-4.825
				c0-2.665,8.367-4.825,18.687-4.825C406.009,401.017,414.375,403.177,414.375,405.842z"/>
			<g>
				<path style="fill:#A18044;" d="M401.694,404.27h-4.368c0.768,0.157,1.324,0.383,1.483,0.697h2.886v0.342h-2.859
					c-0.265,0.697-2.41,1.142-5.799,1.169c2.065,0.554,4.316,1.251,6.54,1.955h-2.542c-2.066-0.643-3.998-1.237-6.487-1.921v-0.424
					h1.456c2.859,0,4.395-0.308,4.581-0.779h-6.037v-0.342h5.957c-0.371-0.397-1.774-0.595-4.078-0.595h-1.88v-0.444h11.147V404.27z
					"/>
			</g>
		</g>
		<g>
			<path style="fill:#EFC072;" d="M414.106,398.604c-4.738-1.206-11.24-1.951-18.417-1.951s-13.68,0.745-18.417,1.951h-7.824v4.825
				c0,3.742,11.749,6.775,26.241,6.775s26.242-3.033,26.242-6.775v-4.825H414.106z"/>
			<path style="fill:#F6DD74;" d="M421.93,398.604c0,3.742-11.749,6.775-26.241,6.775c-14.493,0-26.242-3.033-26.242-6.775
				c0-3.742,11.749-6.775,26.242-6.775C410.181,391.829,421.93,394.862,421.93,398.604z"/>
			<ellipse style="fill:#EFC072;" cx="395.688" cy="398.604" rx="21.552" ry="5.564"/>
			<path style="fill:#F6DD74;" d="M414.375,398.604c0,2.665-8.366,4.825-18.687,4.825c-10.321,0-18.687-2.16-18.687-4.825
				c0-2.665,8.367-4.825,18.687-4.825C406.009,393.779,414.375,395.94,414.375,398.604z"/>
			<g>
				<path style="fill:#A18044;" d="M401.694,397.032h-4.368c0.768,0.157,1.324,0.383,1.483,0.697h2.886v0.342h-2.859
					c-0.265,0.697-2.41,1.142-5.799,1.169c2.065,0.554,4.316,1.251,6.54,1.955h-2.542c-2.066-0.643-3.998-1.237-6.487-1.921v-0.424
					h1.456c2.859,0,4.395-0.308,4.581-0.779h-6.037v-0.342h5.957c-0.371-0.397-1.774-0.595-4.078-0.595h-1.88v-0.444h11.147V397.032
					z"/>
			</g>
		</g>
		<g>
			<path style="fill:#EFC072;" d="M414.106,391.367c-4.738-1.206-11.24-1.951-18.417-1.951s-13.68,0.745-18.417,1.951h-7.824v4.825
				c0,3.742,11.749,6.775,26.241,6.775s26.242-3.033,26.242-6.775v-4.825H414.106z"/>
			<path style="fill:#F6DD74;" d="M421.93,391.367c0,3.742-11.749,6.775-26.241,6.775c-14.493,0-26.242-3.033-26.242-6.775
				c0-3.742,11.749-6.775,26.242-6.775C410.181,384.591,421.93,387.625,421.93,391.367z"/>
			<path style="fill:#EFC072;" d="M417.24,391.367c0,3.073-9.649,5.564-21.552,5.564c-11.903,0-21.552-2.491-21.552-5.564
				c0-3.073,9.649-5.565,21.552-5.565C407.591,385.802,417.24,388.294,417.24,391.367z"/>
			<path style="fill:#F6DD74;" d="M414.375,391.367c0,2.665-8.366,4.825-18.687,4.825c-10.321,0-18.687-2.16-18.687-4.825
				c0-2.665,8.367-4.825,18.687-4.825C406.009,386.542,414.375,388.702,414.375,391.367z"/>
			<g>
				<path style="fill:#A18044;" d="M401.694,389.795h-4.368c0.768,0.157,1.324,0.383,1.483,0.697h2.886v0.342h-2.859
					c-0.265,0.697-2.41,1.142-5.799,1.169c2.065,0.554,4.316,1.251,6.54,1.955h-2.542c-2.066-0.643-3.998-1.237-6.487-1.921v-0.424
					h1.456c2.859,0,4.395-0.308,4.581-0.779h-6.037v-0.342h5.957c-0.371-0.397-1.774-0.595-4.078-0.595h-1.88v-0.444h11.147V389.795
					z"/>
			</g>
		</g>
		<g>
			<path style="fill:#EFC072;" d="M414.106,384.129c-4.738-1.206-11.24-1.95-18.417-1.95s-13.68,0.745-18.417,1.95h-7.824v4.825
				c0,3.742,11.749,6.775,26.241,6.775s26.242-3.034,26.242-6.775v-4.825H414.106z"/>
			<ellipse style="fill:#F6DD74;" cx="395.688" cy="384.129" rx="26.242" ry="6.775"/>
			<ellipse style="fill:#EFC072;" cx="395.688" cy="384.129" rx="21.552" ry="5.564"/>
			<ellipse style="fill:#F6DD74;" cx="395.688" cy="384.129" rx="18.687" ry="4.825"/>
			<g>
				<path style="fill:#A18044;" d="M401.694,382.558h-4.368c0.768,0.157,1.324,0.383,1.483,0.697h2.886v0.342h-2.859
					c-0.265,0.697-2.41,1.142-5.799,1.169c2.065,0.554,4.316,1.251,6.54,1.955h-2.542c-2.066-0.643-3.998-1.237-6.487-1.921v-0.424
					h1.456c2.859,0,4.395-0.308,4.581-0.779h-6.037v-0.342h5.957c-0.371-0.397-1.774-0.595-4.078-0.595h-1.88v-0.444h11.147V382.558
					z"/>
			</g>
		</g>
		<g>
			<path style="fill:#EFC072;" d="M414.106,376.892c-4.738-1.206-11.24-1.95-18.417-1.95s-13.68,0.745-18.417,1.95h-7.824v4.825
				c0,3.742,11.749,6.775,26.241,6.775s26.242-3.034,26.242-6.775v-4.825H414.106z"/>
			<ellipse style="fill:#F6DD74;" cx="395.688" cy="376.892" rx="26.242" ry="6.775"/>
			<ellipse style="fill:#EFC072;" cx="395.688" cy="376.892" rx="21.552" ry="5.564"/>
			<ellipse style="fill:#F6DD74;" cx="395.688" cy="376.892" rx="18.687" ry="4.825"/>
			<g>
				<path style="fill:#A18044;" d="M401.694,375.32h-4.368c0.768,0.157,1.324,0.383,1.483,0.697h2.886v0.342h-2.859
					c-0.265,0.697-2.41,1.142-5.799,1.169c2.065,0.554,4.316,1.251,6.54,1.955h-2.542c-2.066-0.643-3.998-1.237-6.487-1.921v-0.424
					h1.456c2.859,0,4.395-0.308,4.581-0.779h-6.037v-0.342h5.957c-0.371-0.396-1.774-0.595-4.078-0.595h-1.88v-0.444h11.147V375.32z
					"/>
			</g>
		</g>
		<g>
			<path style="fill:#EFC072;" d="M414.106,369.655c-4.738-1.206-11.24-1.95-18.417-1.95s-13.68,0.745-18.417,1.95h-7.824v4.825
				c0,3.742,11.749,6.775,26.241,6.775s26.242-3.034,26.242-6.775v-4.825H414.106z"/>
			<ellipse style="fill:#F6DD74;" cx="395.688" cy="369.655" rx="26.242" ry="6.775"/>
			<ellipse style="fill:#EFC072;" cx="395.688" cy="369.655" rx="21.552" ry="5.564"/>
			<ellipse style="fill:#F6DD74;" cx="395.688" cy="369.655" rx="18.687" ry="4.825"/>
			<g>
				<path style="fill:#A18044;" d="M401.694,368.083h-4.368c0.768,0.157,1.324,0.383,1.483,0.697h2.886v0.342h-2.859
					c-0.265,0.697-2.41,1.142-5.799,1.169c2.065,0.554,4.316,1.251,6.54,1.955h-2.542c-2.066-0.643-3.998-1.237-6.487-1.921v-0.424
					h1.456c2.859,0,4.395-0.308,4.581-0.779h-6.037v-0.342h5.957c-0.371-0.397-1.774-0.595-4.078-0.595h-1.88v-0.444h11.147V368.083
					z"/>
			</g>
		</g>
		<g>
			<path style="fill:#EFC072;" d="M414.106,362.417c-4.738-1.206-11.24-1.95-18.417-1.95s-13.68,0.745-18.417,1.95h-7.824v4.825
				c0,3.742,11.749,6.775,26.241,6.775s26.242-3.033,26.242-6.775v-4.825H414.106z"/>
			<ellipse style="fill:#F6DD74;" cx="395.688" cy="362.417" rx="26.242" ry="6.775"/>
			<ellipse style="fill:#EFC072;" cx="395.688" cy="362.417" rx="21.552" ry="5.564"/>
			<ellipse style="fill:#F6DD74;" cx="395.688" cy="362.417" rx="18.687" ry="4.825"/>
			<g>
				<path style="fill:#A18044;" d="M401.694,360.845h-4.368c0.768,0.157,1.324,0.383,1.483,0.697h2.886v0.342h-2.859
					c-0.265,0.697-2.41,1.142-5.799,1.169c2.065,0.554,4.316,1.251,6.54,1.955h-2.542c-2.066-0.643-3.998-1.237-6.487-1.921v-0.424
					h1.456c2.859,0,4.395-0.308,4.581-0.779h-6.037v-0.342h5.957c-0.371-0.397-1.774-0.595-4.078-0.595h-1.88v-0.444h11.147V360.845
					z"/>
			</g>
		</g>
		<g>
			<path style="fill:#EFC072;" d="M414.106,355.18c-4.738-1.206-11.24-1.95-18.417-1.95s-13.68,0.745-18.417,1.95h-7.824v4.825
				c0,3.742,11.749,6.775,26.241,6.775s26.242-3.033,26.242-6.775v-4.825H414.106z"/>
			<path style="fill:#F6DD74;" d="M421.93,355.18c0,3.742-11.749,6.775-26.241,6.775c-14.493,0-26.242-3.033-26.242-6.775
				s11.749-6.775,26.242-6.775C410.181,348.405,421.93,351.438,421.93,355.18z"/>
			<ellipse style="fill:#EFC072;" cx="395.688" cy="355.18" rx="21.552" ry="5.564"/>
			<path style="fill:#F6DD74;" d="M414.375,355.18c0,2.665-8.366,4.825-18.687,4.825c-10.321,0-18.687-2.16-18.687-4.825
				c0-2.665,8.367-4.825,18.687-4.825C406.009,350.355,414.375,352.515,414.375,355.18z"/>
			<g>
				<path style="fill:#A18044;" d="M401.694,353.608h-4.368c0.768,0.157,1.324,0.383,1.483,0.697h2.886v0.342h-2.859
					c-0.265,0.697-2.41,1.142-5.799,1.169c2.065,0.554,4.316,1.251,6.54,1.955h-2.542c-2.066-0.643-3.998-1.237-6.487-1.921v-0.424
					h1.456c2.859,0,4.395-0.308,4.581-0.779h-6.037v-0.342h5.957c-0.371-0.396-1.774-0.595-4.078-0.595h-1.88v-0.444h11.147V353.608
					z"/>
			</g>
		</g>
	</g>
	<g>
		<g>
			<path style="fill:#EFC072;" d="M352.525,423.56c-4.738-1.206-11.24-1.95-18.417-1.95c-7.178,0-13.68,0.745-18.417,1.95h-7.824
				v4.825c0,3.742,11.749,6.775,26.241,6.775s26.242-3.033,26.242-6.775v-4.825H352.525z"/>
			<ellipse style="fill:#F6DD74;" cx="334.108" cy="423.56" rx="26.242" ry="6.775"/>
			<ellipse style="fill:#EFC072;" cx="334.108" cy="423.56" rx="21.552" ry="5.564"/>
			<ellipse style="fill:#F6DD74;" cx="334.108" cy="423.56" rx="18.687" ry="4.825"/>
			<g>
				<path style="fill:#A18044;" d="M340.114,421.988h-4.368c0.768,0.157,1.324,0.383,1.483,0.697h2.886v0.342h-2.859
					c-0.265,0.697-2.41,1.142-5.799,1.169c2.065,0.554,4.316,1.251,6.54,1.955h-2.542c-2.065-0.643-3.998-1.237-6.487-1.921v-0.424
					h1.456c2.859,0,4.395-0.308,4.581-0.779h-6.037v-0.342h5.957c-0.371-0.397-1.774-0.595-4.078-0.595h-1.88v-0.444h11.147V421.988
					z"/>
			</g>
		</g>
		<g>
			<path style="fill:#EFC072;" d="M352.525,416.323c-4.738-1.206-11.24-1.95-18.417-1.95c-7.178,0-13.68,0.745-18.417,1.95h-7.824
				v4.825c0,3.742,11.749,6.775,26.241,6.775s26.242-3.033,26.242-6.775v-4.825H352.525z"/>
			<path style="fill:#F6DD74;" d="M360.349,416.323c0,3.742-11.749,6.775-26.241,6.775c-14.493,0-26.242-3.034-26.242-6.775
				c0-3.742,11.749-6.775,26.242-6.775C348.6,409.548,360.349,412.581,360.349,416.323z"/>
			<path style="fill:#EFC072;" d="M355.659,416.323c0,3.073-9.649,5.565-21.552,5.565c-11.903,0-21.552-2.491-21.552-5.565
				c0-3.073,9.649-5.565,21.552-5.565C346.01,410.758,355.659,413.25,355.659,416.323z"/>
			<path style="fill:#F6DD74;" d="M352.795,416.323c0,2.665-8.367,4.825-18.687,4.825c-10.321,0-18.687-2.16-18.687-4.825
				s8.367-4.825,18.687-4.825C344.428,411.498,352.795,413.658,352.795,416.323z"/>
			<g>
				<path style="fill:#A18044;" d="M340.114,414.751h-4.368c0.768,0.157,1.324,0.383,1.483,0.697h2.886v0.342h-2.859
					c-0.265,0.697-2.41,1.142-5.799,1.169c2.065,0.554,4.316,1.251,6.54,1.955h-2.542c-2.065-0.643-3.998-1.237-6.487-1.921v-0.424
					h1.456c2.859,0,4.395-0.308,4.581-0.779h-6.037v-0.342h5.957c-0.371-0.397-1.774-0.595-4.078-0.595h-1.88v-0.444h11.147V414.751
					z"/>
			</g>
		</g>
		<g>
			<path style="fill:#EFC072;" d="M352.525,409.086c-4.738-1.206-11.24-1.95-18.417-1.95c-7.178,0-13.68,0.745-18.417,1.95h-7.824
				v4.825c0,3.742,11.749,6.775,26.241,6.775s26.242-3.033,26.242-6.775v-4.825H352.525z"/>
			<path style="fill:#F6DD74;" d="M360.349,409.086c0,3.742-11.749,6.775-26.241,6.775c-14.493,0-26.242-3.033-26.242-6.775
				c0-3.742,11.749-6.775,26.242-6.775C348.6,402.31,360.349,405.344,360.349,409.086z"/>
			<ellipse style="fill:#EFC072;" cx="334.108" cy="409.086" rx="21.552" ry="5.564"/>
			<path style="fill:#F6DD74;" d="M352.795,409.086c0,2.665-8.367,4.825-18.687,4.825c-10.321,0-18.687-2.16-18.687-4.825
				c0-2.665,8.367-4.825,18.687-4.825C344.428,404.261,352.795,406.421,352.795,409.086z"/>
			<g>
				<path style="fill:#A18044;" d="M340.114,407.514h-4.368c0.768,0.157,1.324,0.383,1.483,0.697h2.886v0.342h-2.859
					c-0.265,0.697-2.41,1.142-5.799,1.169c2.065,0.554,4.316,1.251,6.54,1.955h-2.542c-2.065-0.643-3.998-1.237-6.487-1.921v-0.424
					h1.456c2.859,0,4.395-0.308,4.581-0.779h-6.037v-0.342h5.957c-0.371-0.396-1.774-0.595-4.078-0.595h-1.88v-0.444h11.147V407.514
					z"/>
			</g>
		</g>
		<g>
			<path style="fill:#EFC072;" d="M352.525,401.848c-4.738-1.206-11.24-1.95-18.417-1.95c-7.178,0-13.68,0.745-18.417,1.95h-7.824
				v4.825c0,3.742,11.749,6.775,26.241,6.775s26.242-3.033,26.242-6.775v-4.825H352.525z"/>
			<ellipse style="fill:#F6DD74;" cx="334.108" cy="401.848" rx="26.242" ry="6.775"/>
			<ellipse style="fill:#EFC072;" cx="334.108" cy="401.848" rx="21.552" ry="5.564"/>
			<path style="fill:#F6DD74;" d="M352.795,401.848c0,2.665-8.367,4.825-18.687,4.825c-10.321,0-18.687-2.16-18.687-4.825
				c0-2.665,8.367-4.825,18.687-4.825C344.428,397.023,352.795,399.183,352.795,401.848z"/>
			<g>
				<path style="fill:#A18044;" d="M340.114,400.276h-4.368c0.768,0.157,1.324,0.383,1.483,0.697h2.886v0.342h-2.859
					c-0.265,0.697-2.41,1.142-5.799,1.169c2.065,0.554,4.316,1.251,6.54,1.955h-2.542c-2.065-0.643-3.998-1.237-6.487-1.921v-0.424
					h1.456c2.859,0,4.395-0.308,4.581-0.779h-6.037v-0.342h5.957c-0.371-0.397-1.774-0.595-4.078-0.595h-1.88v-0.444h11.147V400.276
					z"/>
			</g>
		</g>
		<g>
			<path style="fill:#EFC072;" d="M352.525,394.611c-4.738-1.206-11.24-1.95-18.417-1.95c-7.178,0-13.68,0.745-18.417,1.95h-7.824
				v4.825c0,3.742,11.749,6.775,26.241,6.775s26.242-3.033,26.242-6.775v-4.825H352.525z"/>
			<ellipse style="fill:#F6DD74;" cx="334.108" cy="394.611" rx="26.242" ry="6.775"/>
			<ellipse style="fill:#EFC072;" cx="334.108" cy="394.611" rx="21.552" ry="5.564"/>
			<ellipse style="fill:#F6DD74;" cx="334.108" cy="394.611" rx="18.687" ry="4.825"/>
			<g>
				<path style="fill:#A18044;" d="M340.114,393.039h-4.368c0.768,0.157,1.324,0.383,1.483,0.697h2.886v0.342h-2.859
					c-0.265,0.697-2.41,1.142-5.799,1.169c2.065,0.554,4.316,1.251,6.54,1.955h-2.542c-2.065-0.643-3.998-1.237-6.487-1.921v-0.424
					h1.456c2.859,0,4.395-0.308,4.581-0.779h-6.037v-0.342h5.957c-0.371-0.397-1.774-0.595-4.078-0.595h-1.88v-0.444h11.147V393.039
					z"/>
			</g>
		</g>
		<g>
			<path style="fill:#EFC072;" d="M352.525,387.373c-4.738-1.206-11.24-1.951-18.417-1.951c-7.178,0-13.68,0.745-18.417,1.951
				h-7.824v4.825c0,3.742,11.749,6.775,26.241,6.775s26.242-3.033,26.242-6.775v-4.825H352.525z"/>
			<path style="fill:#F6DD74;" d="M360.349,387.373c0,3.742-11.749,6.775-26.241,6.775c-14.493,0-26.242-3.033-26.242-6.775
				c0-3.742,11.749-6.775,26.242-6.775C348.6,380.598,360.349,383.631,360.349,387.373z"/>
			<path style="fill:#EFC072;" d="M355.659,387.373c0,3.073-9.649,5.564-21.552,5.564c-11.903,0-21.552-2.491-21.552-5.564
				c0-3.073,9.649-5.565,21.552-5.565C346.01,381.809,355.659,384.3,355.659,387.373z"/>
			<path style="fill:#F6DD74;" d="M352.795,387.373c0,2.665-8.367,4.825-18.687,4.825c-10.321,0-18.687-2.16-18.687-4.825
				c0-2.665,8.367-4.825,18.687-4.825C344.428,382.548,352.795,384.709,352.795,387.373z"/>
			<g>
				<path style="fill:#A18044;" d="M340.114,385.802h-4.368c0.768,0.157,1.324,0.383,1.483,0.697h2.886v0.342h-2.859
					c-0.265,0.697-2.41,1.142-5.799,1.169c2.065,0.554,4.316,1.251,6.54,1.955h-2.542c-2.065-0.643-3.998-1.237-6.487-1.921v-0.424
					h1.456c2.859,0,4.395-0.308,4.581-0.779h-6.037v-0.342h5.957c-0.371-0.397-1.774-0.595-4.078-0.595h-1.88v-0.444h11.147V385.802
					z"/>
			</g>
		</g>
	</g>
	<g>
		<path style="fill:#F1C8A8;" d="M75.537,157.413c0,0,17.596,14.729,54.315,32.83s43.276,34.895,54.579,31.72
			c11.302-3.174-0.648-31.798-15.707-42.408c-15.059-10.61-16.363-26.447-8.023-28.868c13.893-4.033,25.517-2.949,36.424,26.417
			c10.634,28.631,24.915,44.419,35.69,43.464c10.775-0.956-11.643-49.646-15.719-67.023c-4.075-17.376-11.587-43.045-23.79-45.945
			c-12.203-2.9-51.296-12.916-78.129-13.432c-26.833-0.516-39.618-5.898-39.618-5.898l-15.025,63.233L75.537,157.413z"/>
		<g>
			<circle style="fill:#F6DD74;" cx="201.667" cy="218.638" r="24.31"/>
			
				<ellipse transform="matrix(0.8514 -0.5245 0.5245 0.8514 -84.709 138.2579)" style="fill:#EFC072;" cx="201.667" cy="218.638" rx="19.965" ry="19.966"/>
			
				<ellipse transform="matrix(0.8514 -0.5245 0.5245 0.8514 -84.7088 138.2574)" style="fill:#F6DD74;" cx="201.667" cy="218.638" rx="17.312" ry="17.312"/>
			<g>
				<path style="fill:#A18044;" d="M208.384,214.437l-3.937-0.936c0.562,0.713,0.876,1.62,0.758,2.752l2.601,0.618l-0.283,1.193
					l-2.577-0.612c-0.817,2.377-3.119,3.469-6.196,2.839c1.402,2.375,2.852,5.292,4.273,8.226l-2.291-0.544
					c-1.329-2.686-2.577-5.176-4.253-8.095l0.352-1.48l1.313,0.312c2.577,0.612,4.217-0.133,4.775-1.74l-5.441-1.293l0.283-1.193
					l5.369,1.276c-0.005-1.464-1.106-2.456-3.182-2.949l-1.694-0.402l0.368-1.551l10.047,2.387L208.384,214.437z"/>
			</g>
		</g>
		<path style="fill:#F1C8A8;" d="M168.723,179.555c-5.164-3.638-8.697-7.889-10.79-12.004c-11.728-0.898-25.358-2.856-33.104,7.903
			c-2.205,3.062-3.529,6.508-4.202,10.107c2.931,1.53,6,3.092,9.225,4.682c36.719,18.101,43.276,34.895,54.579,31.72
			C195.733,218.788,183.782,190.165,168.723,179.555z"/>
		<path style="fill:#F6DCC7;" d="M162.659,208.908c0,0,3.813-12.343,6.818-10.85c3.005,1.493,18.99,26.812,10.663,24.583
			C171.812,220.412,164.617,216.093,162.659,208.908z"/>
		
			<rect x="20.452" y="108.635" transform="matrix(0.2312 -0.9729 0.9729 0.2312 -68.8058 154.4872)" style="fill:#F0FFF4;" width="85.787" height="24.288"/>
		<path style="fill:#D3E8E4;" d="M69.547,134.212c-0.366-7.681,1.138-15.44,2.189-23.02c1.017-7.324,1.354-14.757,2.751-22.025
			c0.548-2.855,1.283-6.15,2.451-9.246L61.446,76.24l-19.832,83.463l23.63,5.615l5.483-23.074
			C69.953,139.278,69.642,136.217,69.547,134.212z"/>
		<polygon style="fill:#2F322D;" points="9.825,52.949 0,48.18 0,157.756 49.156,169.436 74.115,75.452 		"/>
	</g>
</g>
<g id="Designed_by_Freepik">
	<g>
		<g id="XMLID_319_">
			<g id="XMLID_338_">
				<path id="XMLID_346_" style="fill:#262B31;" d="M260.104,465.465c-0.432,0.443-0.803,0.931-1.108,1.453l-0.465-0.241
					c-0.067-0.298-0.349-0.503-0.659-0.466c-0.331,0.039-0.568,0.339-0.529,0.67s0.339,0.568,0.67,0.529
					c0.065-0.008,0.127-0.026,0.184-0.052l0.452,0.234c-0.251,0.554-0.433,1.139-0.539,1.744l0.746,0.132
					c0.23-1.306,0.85-2.507,1.792-3.473L260.104,465.465z"/>
				<path id="XMLID_345_" style="fill:#262B31;" d="M265.592,463.163c-0.171,0-0.341,0.006-0.51,0.017l-0.074-0.626
					c0.188-0.149,0.296-0.389,0.266-0.645c-0.046-0.393-0.402-0.674-0.795-0.628s-0.674,0.402-0.628,0.795
					c0.03,0.254,0.189,0.461,0.405,0.564l0.073,0.624c-0.714,0.116-1.403,0.332-2.06,0.646l0.327,0.684
					c0.934-0.447,1.942-0.673,2.995-0.673c0.496,0,0.993,0.053,1.475,0.158l0.161-0.741
					C266.693,463.222,266.142,463.163,265.592,463.163z"/>
				<path id="XMLID_344_" style="fill:#262B31;" d="M272.194,465.711c0.331-0.04,0.566-0.341,0.525-0.672
					c-0.04-0.331-0.341-0.566-0.672-0.526c-0.309,0.038-0.535,0.304-0.53,0.609l-0.416,0.363c-0.418-0.43-0.89-0.813-1.408-1.139
					l-0.404,0.641c1.134,0.715,2.021,1.726,2.563,2.925l0.69-0.313c-0.251-0.554-0.568-1.072-0.942-1.545l0.402-0.351
					C272.065,465.716,272.129,465.719,272.194,465.711z"/>
				<path id="XMLID_343_" style="fill:#262B31;" d="M265.044,473.372c-0.386,0.023-0.775,0.035-1.157,0.035
					c-0.88,0-1.733-0.061-2.478-0.179c-0.39-0.062-0.846-0.155-1.27-0.292c1.046,1.861,3.069,3.125,5.388,3.125
					c2.855,0,5.262-1.916,5.95-4.504c-0.682,0.449-1.505,0.825-2.459,1.123C267.839,473.047,266.464,473.286,265.044,473.372z"/>
				<path id="XMLID_339_" style="fill:#262B31;" d="M265.592,464.68c-3.352,0-6.08,2.666-6.08,5.943
					c0,0.426,0.046,0.849,0.137,1.261c0.673,0.483,2.706,0.89,5.347,0.731c2.879-0.173,5.297-0.957,6.672-2.159
					c-0.005-0.195-0.021-0.39-0.045-0.582C271.244,466.913,268.651,464.68,265.592,464.68z M263.432,471.194
					c-1.02,0-1.85-0.83-1.85-1.85c0-1.02,0.83-1.85,1.85-1.85c1.02,0,1.85,0.83,1.85,1.85
					C265.282,470.365,264.452,471.194,263.432,471.194z M268.17,470.286c-0.75,0-1.36-0.61-1.36-1.36s0.61-1.361,1.36-1.361
					c0.75,0,1.361,0.61,1.361,1.361S268.92,470.286,268.17,470.286z"/>
			</g>
			<path id="XMLID_336_" style="fill:#262B31;" d="M281.595,466.547c-0.295-0.116-0.806-0.309-1.382-0.237
				c-0.551,0.069-0.844,0.341-0.844,1.007v0.866h2.228v1.717h-2.228v5.455h-1.932v-5.455h-1.34v-1.717h1.34v-0.888
				c0-1.68,0.895-2.783,2.568-2.783c0.642,0,1.157,0.122,1.59,0.308L281.595,466.547z"/>
			<path id="XMLID_334_" style="fill:#262B31;" d="M286.298,469.879c-0.177-0.03-0.358-0.046-0.526-0.046
				c-0.896,0-1.51,0.548-1.51,1.614v3.908h-1.932v-7.172h1.873v0.785c0.451-0.673,1.14-0.977,2.021-0.977
				c0.414,0,0.848,0.128,1.094,0.337L286.298,469.879z"/>
			<path id="XMLID_331_" style="fill:#262B31;" d="M293.965,471.757c0,0.222-0.015,0.489-0.037,0.651h-5.085
				c0.207,1.036,0.933,1.488,1.843,1.488c0.622,0,1.295-0.252,1.813-0.688l1.133,1.243c-0.814,0.748-1.85,1.088-3.057,1.088
				c-2.198,0-3.723-1.495-3.723-3.753c0-2.258,1.48-3.797,3.626-3.797C292.544,467.99,293.958,469.522,293.965,471.757z
				 M288.851,471.091h3.175c-0.178-0.918-0.733-1.436-1.562-1.436C289.554,469.655,289.021,470.203,288.851,471.091z"/>
			<path id="XMLID_328_" style="fill:#262B31;" d="M301.618,471.757c0,0.222-0.015,0.489-0.037,0.651h-5.085
				c0.207,1.036,0.932,1.488,1.843,1.488c0.622,0,1.295-0.252,1.813-0.688l1.132,1.243c-0.814,0.748-1.85,1.088-3.057,1.088
				c-2.198,0-3.723-1.495-3.723-3.753c0-2.258,1.48-3.797,3.627-3.797C300.197,467.99,301.611,469.522,301.618,471.757z
				 M296.504,471.091h3.175c-0.178-0.918-0.733-1.436-1.562-1.436C297.207,469.655,296.674,470.203,296.504,471.091z"/>
			<path id="XMLID_325_" style="fill:#262B31;" d="M309.964,471.764c0,2.154-1.495,3.775-3.471,3.775
				c-0.962,0-1.643-0.378-2.109-0.933v3.708h-1.924v-10.133h1.887v0.792c0.466-0.585,1.155-0.984,2.139-0.984
				C308.469,467.99,309.964,469.61,309.964,471.764z M304.287,471.764c0,1.132,0.747,1.976,1.843,1.976
				c1.14,0,1.85-0.881,1.85-1.976c0-1.095-0.711-1.976-1.85-1.976C305.035,469.788,304.287,470.632,304.287,471.764z"/>
			<path id="XMLID_322_" style="fill:#262B31;" d="M313.068,465.836c0,0.696-0.54,1.229-1.236,1.229
				c-0.696,0-1.229-0.533-1.229-1.229c0-0.696,0.533-1.243,1.229-1.243C312.527,464.592,313.068,465.14,313.068,465.836z
				 M312.809,475.354h-1.932v-7.172h1.932V475.354z"/>
			<path id="XMLID_320_" style="fill:#262B31;" d="M316.032,470.736l2.702-2.554h2.368l-3.479,3.375l3.501,3.797h-2.376
				l-2.716-2.901v2.901H314.1v-10.658h1.932V470.736z"/>
		</g>
		<g>
			<path style="fill:#262B31;" d="M184.412,475.289v-1.055c-0.527,0.718-1.391,1.23-2.387,1.23c-1.846,0-3.149-1.406-3.149-3.706
				c0-2.256,1.289-3.721,3.149-3.721c0.952,0,1.816,0.469,2.387,1.245v-3.765h1.099v9.77H184.412z M184.412,473.37v-3.208
				c-0.395-0.615-1.245-1.143-2.124-1.143c-1.421,0-2.27,1.172-2.27,2.739c0,1.567,0.85,2.724,2.27,2.724
				C183.168,474.483,184.017,473.986,184.412,473.37z"/>
			<path style="fill:#262B31;" d="M186.932,471.744c0-2.051,1.465-3.706,3.486-3.706c2.139,0,3.398,1.67,3.398,3.794v0.279h-5.727
				c0.088,1.333,1.025,2.446,2.549,2.446c0.806,0,1.626-0.322,2.182-0.894l0.527,0.718c-0.703,0.703-1.655,1.084-2.812,1.084
				C188.441,475.465,186.932,473.956,186.932,471.744z M190.404,468.947c-1.509,0-2.256,1.274-2.314,2.358h4.643
				C192.718,470.25,192.015,468.947,190.404,468.947z"/>
			<path style="fill:#262B31;" d="M194.607,474.351l0.571-0.791c0.469,0.542,1.362,1.011,2.329,1.011c1.084,0,1.67-0.513,1.67-1.216
				c0-1.714-4.38-0.659-4.38-3.281c0-1.098,0.952-2.036,2.636-2.036c1.201,0,2.051,0.454,2.622,1.026l-0.513,0.762
				c-0.424-0.513-1.201-0.894-2.109-0.894c-0.967,0-1.567,0.483-1.567,1.113c0,1.552,4.38,0.527,4.38,3.281
				c0,1.187-0.952,2.138-2.783,2.138C196.306,475.465,195.325,475.113,194.607,474.351z"/>
			<path style="fill:#262B31;" d="M201.477,466.471c0-0.41,0.337-0.747,0.732-0.747c0.41,0,0.747,0.337,0.747,0.747
				c0,0.41-0.337,0.732-0.747,0.732C201.814,467.203,201.477,466.881,201.477,466.471z M201.667,475.289v-7.075h1.099v7.075H201.667
				z"/>
			<path style="fill:#262B31;" d="M204.582,477.105l0.556-0.82c0.586,0.703,1.289,0.967,2.3,0.967c1.172,0,2.27-0.571,2.27-2.124
				v-1.011c-0.513,0.718-1.377,1.26-2.373,1.26c-1.845,0-3.149-1.377-3.149-3.662c0-2.27,1.289-3.677,3.149-3.677
				c0.952,0,1.802,0.469,2.373,1.245v-1.069h1.099v6.87c0,2.344-1.641,3.076-3.369,3.076
				C206.237,478.16,205.417,477.926,204.582,477.105z M209.709,473.253v-3.091c-0.381-0.615-1.23-1.143-2.109-1.143
				c-1.421,0-2.27,1.128-2.27,2.695c0,1.553,0.849,2.695,2.27,2.695C208.478,474.41,209.328,473.868,209.709,473.253z"/>
			<path style="fill:#262B31;" d="M217.413,475.289v-4.629c0-1.245-0.63-1.641-1.582-1.641c-0.865,0-1.685,0.527-2.095,1.099v5.17
				h-1.099v-7.075h1.099v1.025c0.498-0.586,1.464-1.201,2.519-1.201c1.48,0,2.256,0.747,2.256,2.285v4.966H217.413z"/>
			<path style="fill:#262B31;" d="M219.932,471.744c0-2.051,1.465-3.706,3.486-3.706c2.139,0,3.398,1.67,3.398,3.794v0.279h-5.727
				c0.088,1.333,1.025,2.446,2.549,2.446c0.806,0,1.626-0.322,2.183-0.894l0.527,0.718c-0.703,0.703-1.655,1.084-2.812,1.084
				C221.441,475.465,219.932,473.956,219.932,471.744z M223.404,468.947c-1.509,0-2.256,1.274-2.314,2.358h4.643
				C225.718,470.25,225.015,468.947,223.404,468.947z"/>
			<path style="fill:#262B31;" d="M233.35,475.289v-1.055c-0.527,0.718-1.392,1.23-2.388,1.23c-1.846,0-3.149-1.406-3.149-3.706
				c0-2.256,1.289-3.721,3.149-3.721c0.952,0,1.817,0.469,2.388,1.245v-3.765h1.098v9.77H233.35z M233.35,473.37v-3.208
				c-0.396-0.615-1.245-1.143-2.124-1.143c-1.421,0-2.27,1.172-2.27,2.739c0,1.567,0.849,2.724,2.27,2.724
				C232.105,474.483,232.954,473.986,233.35,473.37z"/>
			<path style="fill:#262B31;" d="M239.692,475.289v-9.77h1.098v3.765c0.572-0.776,1.421-1.245,2.388-1.245
				c1.845,0,3.149,1.465,3.149,3.721c0,2.299-1.304,3.706-3.149,3.706c-0.996,0-1.86-0.513-2.388-1.23v1.055H239.692z
				 M242.9,474.483c1.436,0,2.286-1.157,2.286-2.724c0-1.568-0.85-2.739-2.286-2.739c-0.864,0-1.728,0.527-2.109,1.143v3.208
				C241.171,473.986,242.036,474.483,242.9,474.483z"/>
			<path style="fill:#262B31;" d="M247.529,477.061c0.161,0.073,0.425,0.117,0.601,0.117c0.483,0,0.805-0.161,1.055-0.747
				l0.469-1.069l-2.959-7.148h1.187l2.358,5.8l2.344-5.8h1.201l-3.545,8.51c-0.425,1.025-1.143,1.421-2.08,1.435
				c-0.234,0-0.601-0.044-0.805-0.103L247.529,477.061z"/>
		</g>
	</g>
</g>
</svg>
